HIERARCHY
ROOT Hips
{
	OFFSET 0.000000 88.474243 0.000000
	CHANNELS 6 Xposition Yposition Zposition Zrotation Yrotation Xrotation 
	JOINT Hips_Spine
	{
		OFFSET 0.000000 0.000000 0.000000
		CHANNELS 3 Zrotation Yrotation Xrotation
		JOINT Spine
		{
			OFFSET 0.005100 8.711998 -0.691000
			CHANNELS 3 Zrotation Yrotation Xrotation
			JOINT Spine1
			{
				OFFSET -0.009200 8.660301 -1.275000
				CHANNELS 3 Zrotation Yrotation Xrotation
				JOINT Spine2
				{
					OFFSET 0.006300 9.852501 -1.857000
					CHANNELS 3 Zrotation Yrotation Xrotation
					JOINT Spine2_Neck
					{
						OFFSET 0.000000 0.000000 0.000000
						CHANNELS 3 Zrotation Yrotation Xrotation
						JOINT Neck
						{
							OFFSET 0.016300 11.420799 -0.263300
							CHANNELS 3 Zrotation Yrotation Xrotation
							End Site #name: Head
							{
								OFFSET -0.019200 9.262405 2.362500
							}
						}
					}
					JOINT Spine2_LeftShoulder
					{
						OFFSET 0.000000 0.000000 0.000000
						CHANNELS 3 Zrotation Yrotation Xrotation
						JOINT LeftShoulder
						{
							OFFSET 5.616900 6.732201 -0.345700
							CHANNELS 3 Zrotation Yrotation Xrotation
							JOINT LeftArm
							{
								OFFSET 10.664888 -0.183372 -2.440700
								CHANNELS 3 Zrotation Yrotation Xrotation
								JOINT LeftForeArm
								{
									OFFSET 27.459126 0.000000 0.000000
									CHANNELS 3 Zrotation Yrotation Xrotation
									End Site #name: LeftHand
									{
										OFFSET 21.306858 0.000000 0.000000
									}
								}
							}
						}
					}
					JOINT Spine2_RightShoulder
					{
						OFFSET 0.000000 0.000000 0.000000
						CHANNELS 3 Zrotation Yrotation Xrotation
						JOINT RightShoulder
						{
							OFFSET -5.580300 6.737503 -0.344400
							CHANNELS 3 Zrotation Yrotation Xrotation
							JOINT RightArm
							{
								OFFSET -10.679335 -0.188484 -2.383900
								CHANNELS 3 Zrotation Yrotation Xrotation
								JOINT RightForeArm
								{
									OFFSET -27.503529 0.000000 0.000000
									CHANNELS 3 Zrotation Yrotation Xrotation
									End Site #name: RightHand
									{
										OFFSET -21.306808 0.000000 0.000000
									}
								}
							}
						}
					}
				}
			}
		}
	}
	JOINT Hips_LeftUpLeg
	{
		OFFSET 0.000000 0.000000 0.000000
		CHANNELS 3 Zrotation Yrotation Xrotation
		JOINT LeftUpLeg
		{
			OFFSET 6.857700 -6.739601 0.312100
			CHANNELS 3 Zrotation Yrotation Xrotation
			JOINT LeftLeg
			{
				OFFSET -0.367590 -34.731552 -4.572400
				CHANNELS 3 Zrotation Yrotation Xrotation
				End Site #name: LeftFoot
				{
					OFFSET 0.367590 -34.656704 -6.067400
				}
			}
		}
	}
	JOINT Hips_RightUpLeg
	{
		OFFSET 0.000000 0.000000 0.000000
		CHANNELS 3 Zrotation Yrotation Xrotation
		JOINT RightUpLeg
		{
			OFFSET -6.876100 -6.733299 0.301000
			CHANNELS 3 Zrotation Yrotation Xrotation
			JOINT RightLeg
			{
				OFFSET 0.347353 -34.795158 -4.515900
				CHANNELS 3 Zrotation Yrotation Xrotation
				End Site #name: RightFoot
				{
					OFFSET -0.347353 -34.589367 -6.070300
				}
			}
		}
	}
}
MOTION
Frames: 12
Frame Time: 0.041667
-0.519606 0.780426 -2.459011 -2.135212 7.981815 -7.146162 -0.000000 0.000000 0.000000 3.081851 -1.484946 -5.372236 2.426508 -1.175181 -1.926005 0.000000 0.000000 0.000000 2.815899 -0.826060 -2.193764 2.802005 -3.886912 -0.390238 1.992602 -1.262368 -2.164135 -21.640112 0.115708 6.664757 -45.799680 14.283120 14.202721 -0.858722 -25.605065 4.698573 1.801434 -1.005246 -0.643227 8.012683 6.770095 2.101589 63.630691 2.780178 -11.703235 0.827137 41.572469 -0.261705 0.000000 -0.000000 -0.000000 -3.662824 21.793764 -7.974552 5.327362 11.294417 25.051230 0.000000 0.000000 0.000000 -2.417078 1.576376 -15.316969 3.273622 -6.630028 9.493935 
-0.843773 0.772953 -2.555961 -2.439086 7.991986 -7.424149 -0.000000 0.000000 0.000000 3.959740 -1.273975 -5.568441 2.649442 -1.209168 -1.944376 0.000000 0.000000 0.000000 2.990269 -0.790565 -2.175005 2.912235 -3.886058 -0.118072 2.220526 -1.253403 -2.104952 -21.176207 0.312129 6.745888 -46.419888 14.846031 13.904094 -0.930802 -26.900353 4.622054 2.005558 -0.986846 -0.651898 7.887295 6.870501 2.134627 63.633697 2.574246 -11.653481 0.845260 41.865981 -0.249078 0.000000 -0.000000 -0.000000 -3.034489 22.097900 -8.170934 5.446852 11.282164 25.898868 0.000000 0.000000 0.000000 -1.748361 1.818519 -15.623333 3.622011 -6.678139 9.991802 
-1.157199 0.766309 -2.633650 -2.687162 8.023330 -7.632371 -0.000000 0.000000 0.000000 4.722710 -1.076947 -5.786380 2.866500 -1.236742 -1.947593 0.000000 0.000000 0.000000 3.160304 -0.755285 -2.143185 3.038691 -3.866561 0.127195 2.437399 -1.243998 -2.031541 -20.756827 0.478658 6.821212 -46.992791 15.230916 13.493381 -0.978978 -27.893015 4.543096 2.207488 -0.967979 -0.652173 7.837044 6.988363 2.168331 63.611401 2.399895 -11.627755 0.862102 42.217010 -0.234073 0.000000 -0.000000 -0.000000 -2.486977 22.217112 -8.355808 5.425706 11.167173 26.753823 0.000000 -0.000000 0.000000 -1.124136 2.147723 -16.032316 3.953046 -6.738404 10.568866 
-1.447753 0.748443 -2.704681 -2.846047 7.952840 -7.734497 -0.000000 -0.000000 0.000000 5.372005 -0.854861 -5.968392 3.077107 -1.252974 -1.909168 0.000000 0.000000 0.000000 3.322085 -0.721595 -2.088910 3.162953 -3.797089 0.300914 2.640207 -1.232749 -1.932380 -20.405133 0.590498 6.883188 -47.505155 15.556465 13.067705 -1.021285 -28.719359 4.491082 2.393526 -0.944209 -0.636729 7.864476 7.121421 2.201714 63.565361 2.240616 -11.609008 0.878757 42.667596 -0.218685 0.000000 -0.000000 -0.000000 -2.005495 22.189259 -8.360189 5.218938 11.003329 27.341781 0.000000 -0.000000 0.000000 -0.562784 2.546474 -16.496819 4.256592 -6.782454 11.157022 
-1.702183 0.719362 -2.772310 -2.906250 7.494228 -7.764259 -0.000000 -0.000000 0.000000 5.958572 -0.726061 -6.008811 3.272197 -1.267875 -1.812637 0.000000 0.000000 0.000000 3.463379 -0.692513 -2.005515 3.251129 -3.730088 0.464193 2.822620 -1.218015 -1.788833 -20.110519 0.681584 6.911148 -47.993618 15.828504 12.630564 -1.057253 -29.436354 4.465537 2.557436 -0.919427 -0.603050 7.954473 7.257546 2.236299 63.502319 2.064975 -11.621349 0.897291 43.291162 -0.199147 0.000000 -0.000000 -0.000000 -1.537494 22.125613 -7.880011 4.907452 10.881290 27.248351 0.000000 -0.000000 0.000000 -0.081579 3.090314 -16.943861 4.526247 -6.820772 11.715115 
-1.910412 0.680713 -2.838807 -2.883569 6.650714 -7.759993 -0.000000 -0.000000 0.000000 6.474865 -0.751555 -5.967508 3.444393 -1.292308 -1.679841 0.000000 0.000000 0.000000 3.581221 -0.672071 -1.906166 3.319241 -3.647173 0.591010 2.984488 -1.211112 -1.598321 -19.851048 0.735698 6.904101 -48.441472 15.966697 12.275322 -1.087417 -30.007887 4.452000 2.700803 -0.897799 -0.554403 8.120539 7.402276 2.268996 63.429312 1.906867 -11.637653 0.917902 44.026410 -0.177648 0.000000 -0.000000 -0.000000 -1.088482 22.183183 -7.042485 4.527126 10.758893 26.726096 0.000000 -0.000000 0.000000 0.312281 3.696944 -17.358060 4.783748 -6.848370 12.220452 
-2.060115 0.634469 -2.905929 -2.759440 5.351050 -7.713809 -0.000000 -0.000000 0.000000 6.894488 -0.919938 -5.867703 3.589989 -1.326033 -1.532726 0.000000 0.000000 0.000000 3.675298 -0.664184 -1.803918 3.379772 -3.548957 0.688061 3.119243 -1.214700 -1.415183 -19.629053 0.768057 6.884017 -48.812330 15.970013 12.069244 -1.113191 -30.459212 4.446823 2.820595 -0.889471 -0.499751 8.313483 7.549074 2.292551 63.356012 1.753062 -11.656154 0.940603 44.860758 -0.153889 0.000000 -0.000000 -0.000000 -0.654355 22.244078 -6.318118 3.942231 10.471698 26.494675 0.000000 -0.000000 0.000000 0.646098 4.399551 -17.807324 5.005010 -6.831554 12.867000 
-2.140399 0.582747 -2.974656 -2.546270 3.685741 -7.638216 -0.000000 -0.000000 0.000000 7.189141 -1.211103 -5.716486 3.715580 -1.374581 -1.383926 0.000000 0.000000 0.000000 3.747858 -0.667436 -1.707889 3.414929 -3.445860 0.766717 3.230836 -1.229786 -1.256029 -19.454807 0.794902 6.848491 -49.095711 15.833900 11.990844 -1.133032 -30.784573 4.442393 2.920080 -0.895874 -0.445095 8.510732 7.683358 2.308702 63.296272 1.600489 -11.657315 0.967432 45.768453 -0.126150 0.000000 -0.000000 -0.000000 -0.321009 22.265044 -5.689287 3.298095 9.905506 26.635924 0.000000 -0.000000 0.000000 0.886846 5.218617 -18.296503 5.199963 -6.716637 13.601715 
-2.143167 0.528163 -3.045089 -2.244825 1.767364 -7.545414 -0.000000 -0.000000 0.000000 7.376674 -1.544936 -5.546258 3.812218 -1.428930 -1.253394 0.000000 0.000000 0.000000 3.804246 -0.680912 -1.623320 3.400100 -3.320747 0.842850 3.325404 -1.255089 -1.129028 -19.325377 0.818944 6.800649 -49.316534 15.574748 12.055169 -1.156661 -31.046466 4.427581 3.004951 -0.917503 -0.402092 8.683849 7.830671 2.319243 63.254473 1.437032 -11.682857 0.997657 46.717583 -0.093861 0.000000 -0.000000 -0.000000 -0.045336 22.030611 -5.225068 2.758303 9.478545 27.142776 0.000000 -0.000000 0.000000 1.008624 6.102797 -18.886851 5.358931 -6.555255 14.515373 
-2.073316 0.474136 -3.114364 -1.874466 -0.307448 -7.432214 -0.000000 -0.000000 0.000000 7.470055 -1.878501 -5.385804 3.889559 -1.487289 -1.145990 0.000000 0.000000 0.000000 3.852893 -0.701735 -1.548206 3.342832 -3.175809 0.919676 3.410270 -1.288521 -1.040488 -19.248591 0.855886 6.751573 -49.444257 15.212933 12.239979 -1.177722 -31.188955 4.381235 3.081887 -0.951132 -0.370261 8.847718 8.025284 2.339560 63.215181 1.282041 -11.733859 1.026859 47.644507 -0.061012 0.000000 -0.000000 -0.000000 0.181684 21.606183 -4.807436 2.252270 9.287490 27.680335 0.000000 -0.000000 0.000000 0.959588 6.974266 -19.576971 5.477033 -6.370288 15.537563 
-1.940124 0.426487 -3.177703 -1.470770 -2.373109 -7.305300 -0.000000 -0.000000 0.000000 7.494325 -2.212886 -5.247362 3.962024 -1.547643 -1.064166 0.000000 0.000000 0.000000 3.896244 -0.728925 -1.483642 3.254205 -3.012647 0.996526 3.489633 -1.327742 -0.980734 -19.227130 0.900388 6.712447 -49.531705 14.806567 12.413184 -1.198874 -31.281822 4.301727 3.155357 -0.999075 -0.353898 9.001902 8.311374 2.383643 63.206753 1.093866 -11.845118 1.058542 48.521498 -0.028391 0.000000 -0.000000 -0.000000 0.302455 21.028495 -4.506504 1.770520 9.062702 28.063239 0.000000 -0.000000 0.000000 0.776995 7.753290 -20.287016 5.570831 -6.156487 16.597223 
-1.750999 0.389778 -3.230443 -1.080061 -4.366763 -7.151982 -0.000000 -0.000000 0.000000 7.525612 -2.451169 -5.134397 4.027602 -1.610734 -1.005434 0.000000 0.000000 0.000000 3.931936 -0.759612 -1.426558 3.132544 -2.867673 1.080449 3.558688 -1.368745 -0.947643 -19.264192 0.947625 6.661038 -49.622034 14.440476 12.612947 -1.212133 -31.284185 4.204741 3.221329 -1.055166 -0.345061 9.119602 8.597205 2.429952 63.212475 0.911731 -12.016798 1.089885 49.342247 0.008503 0.000000 -0.000000 -0.000000 0.255082 20.470624 -4.306575 1.363396 8.734288 28.243358 0.000000 -0.000000 0.000000 0.510976 8.404088 -21.014888 5.599718 -6.004157 17.665185 
